<svg width="20" height="20" viewBox="0 0 20 20" fill="none" xmlns="http://www.w3.org/2000/svg">
<path d="M9.99985 8.82149L5.58902 4.41066C5.43185 4.25886 5.22135 4.17486 5.00285 4.17676C4.78435 4.17866 4.57534 4.2663 4.42084 4.42081C4.26633 4.57531 4.17869 4.78433 4.17679 5.00282C4.17489 5.22132 4.25889 5.43182 4.41068 5.58899L8.82152 9.99982L4.41068 14.4107C4.25889 14.5678 4.17489 14.7783 4.17679 14.9968C4.17869 15.2153 4.26633 15.4243 4.42084 15.5788C4.57534 15.7333 4.78435 15.821 5.00285 15.8229C5.22135 15.8248 5.43185 15.7408 5.58902 15.589L9.99985 11.1782L14.4107 15.589C14.5679 15.7408 14.7784 15.8248 14.9969 15.8229C15.2153 15.821 15.4244 15.7333 15.5789 15.5788C15.7334 15.4243 15.821 15.2153 15.8229 14.9968C15.8248 14.7783 15.7408 14.5678 15.589 14.4107L11.1782 9.99982L15.589 5.58899C15.6686 5.51212 15.7321 5.42016 15.7758 5.31849C15.8194 5.21682 15.8424 5.10747 15.8434 4.99682C15.8444 4.88618 15.8233 4.77644 15.7814 4.67403C15.7395 4.57161 15.6776 4.47857 15.5993 4.40033C15.5211 4.32208 15.4281 4.26021 15.3256 4.21831C15.2232 4.1764 15.1135 4.15532 15.0029 4.15628C14.8922 4.15724 14.7829 4.18023 14.6812 4.22391C14.5795 4.26758 14.4876 4.33107 14.4107 4.41066L9.99985 8.82149Z" fill="#44546F"/>
</svg>
