<svg width="40" height="44" viewBox="0 0 40 44" fill="none" xmlns="http://www.w3.org/2000/svg">
<path d="M7.94263 43.9983C6.712 43.9983 5.66379 43.5656 4.798 42.7003C3.93267 41.8345 3.5 40.7863 3.5 39.5556V5.49825H0.75V2.74825H11.75V0.632812H28.25V2.74825H39.25V5.49825H36.5V39.5556C36.5 40.8215 36.076 41.8785 35.2281 42.7264C34.3802 43.5743 33.3233 43.9983 32.0574 43.9983H7.94263ZM33.75 5.49825H6.25V39.5556C6.25 40.0493 6.40858 40.4549 6.72575 40.7725C7.04338 41.0897 7.449 41.2483 7.94263 41.2483H32.0574C32.4809 41.2483 32.8689 41.072 33.2213 40.7196C33.5738 40.3671 33.75 39.9791 33.75 39.5556V5.49825ZM13.9713 35.7483H16.7213V10.9983H13.9713V35.7483ZM23.2787 35.7483H26.0287V10.9983H23.2787V35.7483Z" fill="#00A1F9"/>
</svg>
