<svg width="20" height="20" viewBox="0 0 20 20" fill="none" xmlns="http://www.w3.org/2000/svg">
<path d="M2.1875 7.03125H17.8125" stroke="#2C2D33" stroke-miterlimit="10" stroke-linecap="round" stroke-linejoin="round"/>
<path d="M8.4375 3.90625H11.5625" stroke="#2C2D33" stroke-miterlimit="10" stroke-linecap="round" stroke-linejoin="round"/>
<path d="M4.74023 3.90625L5.38516 1.87121C5.58543 1.23926 6.17668 0.78125 6.87492 0.78125C8.94195 0.78125 11.2939 0.78125 13.1249 0.78125C13.8232 0.78125 14.4144 1.23926 14.6147 1.87121L15.2596 3.90625" stroke="#2C2D33" stroke-miterlimit="10" stroke-linecap="round" stroke-linejoin="round"/>
<path d="M16.25 7.03125L14.672 17.877C14.5648 18.6354 13.913 19.2188 13.125 19.2188C11.1536 19.2188 8.86125 19.2188 6.875 19.2188C6.08699 19.2188 5.43523 18.6354 5.32797 17.877L3.75 7.03125" stroke="#2C2D33" stroke-miterlimit="10" stroke-linecap="round" stroke-linejoin="round"/>
<path d="M8.4375 10.1562V16.0938" stroke="#2C2D33" stroke-miterlimit="10" stroke-linecap="round" stroke-linejoin="round"/>
<path d="M11.5625 10.1562V16.0938" stroke="#2C2D33" stroke-miterlimit="10" stroke-linecap="round" stroke-linejoin="round"/>
</svg>
