<svg width="32" height="32" viewBox="0 0 32 32" fill="none" xmlns="http://www.w3.org/2000/svg">
<path fill-rule="evenodd" clip-rule="evenodd" d="M13.005 14.9931C12.8175 15.1806 12.7122 15.435 12.7122 15.7001C12.7122 15.9653 12.8175 16.2196 13.005 16.4071L17.598 21.0001C17.7842 21.1827 18.0351 21.2843 18.2959 21.283C18.5567 21.2817 18.8065 21.1775 18.9909 20.9931C19.1754 20.8086 19.2796 20.5589 19.2809 20.298C19.2822 20.0372 19.1805 19.7864 18.998 19.6001L15.098 15.7001L18.998 11.8001C19.1805 11.6138 19.2822 11.363 19.2809 11.1022C19.2796 10.8414 19.1754 10.5916 18.9909 10.4072C18.8065 10.2227 18.5567 10.1185 18.2959 10.1172C18.0351 10.1159 17.7842 10.2176 17.598 10.4001L13.005 14.9931Z" fill="white"/>
</svg>
