<svg width="20" height="21" viewBox="0 0 20 21" fill="none" xmlns="http://www.w3.org/2000/svg">
<g clip-path="url(#clip0_1411_7235)">
<path d="M17.8745 15.296C18.7273 13.8988 19.2188 12.2568 19.2188 10.5C19.2188 5.40863 15.0914 1.28125 10 1.28125C4.90863 1.28125 0.78125 5.40863 0.78125 10.5C0.78125 15.5914 4.90863 19.7188 10 19.7188C11.9207 19.7188 13.7042 19.1314 15.1807 18.1264" stroke="white" stroke-miterlimit="10" stroke-linecap="round" stroke-linejoin="round"/>
<path d="M6.80851 6.68359C5.68796 7.60551 4.97339 9.00289 4.97339 10.5672C4.97339 13.3433 7.22386 15.5938 9.99999 15.5938C12.7761 15.5938 15.0266 13.3433 15.0266 10.5672C15.0266 9.00289 14.312 7.60551 13.1915 6.68359" stroke="white" stroke-miterlimit="10" stroke-linecap="round" stroke-linejoin="round"/>
<path d="M10 5.41016V8.34398" stroke="white" stroke-miterlimit="10" stroke-linecap="round" stroke-linejoin="round"/>
</g>
<defs>
<clipPath id="clip0_1411_7235">
<rect width="20" height="20" fill="white" transform="translate(0 0.5)"/>
</clipPath>
</defs>
</svg>
