<svg width="20" height="20" viewBox="0 0 20 20" fill="none" xmlns="http://www.w3.org/2000/svg">
<path d="M13.125 2.34375H16.25C17.1129 2.34375 17.8125 3.04332 17.8125 3.90625V17.6562C17.8125 18.5192 17.1129 19.2188 16.25 19.2188H3.75C2.88707 19.2188 2.1875 18.5192 2.1875 17.6562V3.90625C2.1875 3.04332 2.88707 2.34375 3.75 2.34375H6.875" stroke="white" stroke-miterlimit="10" stroke-linecap="round" stroke-linejoin="round"/>
<path d="M5.3125 12.9688L9.21875 9.0625L11.5625 11.4062L14.6875 8.28125" stroke="white" stroke-miterlimit="10" stroke-linecap="round" stroke-linejoin="round"/>
<path d="M14.6875 14.5312H5.3125V7.03125" stroke="white" stroke-miterlimit="10" stroke-linecap="round" stroke-linejoin="round"/>
<path d="M13.125 3.90625H6.875V2.34375C6.875 1.48082 7.57457 0.78125 8.4375 0.78125H11.5625C12.4254 0.78125 13.125 1.48082 13.125 2.34375V3.90625Z" stroke="white" stroke-miterlimit="10" stroke-linecap="round" stroke-linejoin="round"/>
</svg>
