<svg width="32" height="32" viewBox="0 0 32 32" fill="none" xmlns="http://www.w3.org/2000/svg">
<path fill-rule="evenodd" clip-rule="evenodd" d="M18.995 14.9931C19.1825 15.1806 19.2878 15.435 19.2878 15.7001C19.2878 15.9653 19.1825 16.2196 18.995 16.4071L14.402 21.0001C14.2157 21.1827 13.9649 21.2843 13.7041 21.283C13.4433 21.2817 13.1935 21.1775 13.009 20.9931C12.8246 20.8086 12.7204 20.5589 12.7191 20.298C12.7178 20.0372 12.8195 19.7864 13.002 19.6001L16.902 15.7001L13.002 11.8001C12.8195 11.6138 12.7178 11.363 12.7191 11.1022C12.7204 10.8414 12.8246 10.5916 13.009 10.4072C13.1935 10.2227 13.4433 10.1185 13.7041 10.1172C13.9649 10.1159 14.2157 10.2176 14.402 10.4001L18.995 14.9931Z" fill="white"/>
</svg>
