<svg width="164" height="164" viewBox="0 0 164 164" fill="none" xmlns="http://www.w3.org/2000/svg">
<path fill-rule="evenodd" clip-rule="evenodd" d="M120.096 53.1446C122.388 55.4273 122.396 59.1359 120.113 61.4279L70.7605 110.981C68.4779 113.273 64.7695 113.28 62.4775 110.998L44.4789 93.074C42.1868 90.7914 42.1791 87.0829 44.4617 84.7907C46.7443 82.4986 50.4528 82.4909 52.7449 84.7735L66.5935 98.5647L111.813 53.1614C114.096 50.8694 117.804 50.8619 120.096 53.1446Z" fill="#00A1F9"/>
<path fill-rule="evenodd" clip-rule="evenodd" d="M81.6586 16.7143C50.6114 16.7143 24.565 38.3937 17.879 67.4361L17.879 67.4362C16.7906 72.1635 16.2143 77.0909 16.2143 82.1586C16.2143 118.275 45.5421 147.603 81.6586 147.603C117.775 147.603 147.103 118.275 147.103 82.1586C147.103 46.0421 117.775 16.7143 81.6586 16.7143ZM6.46331 64.808C14.3455 30.5697 45.03 5 81.6586 5C124.245 5 158.817 39.5725 158.817 82.1586C158.817 124.745 124.245 159.317 81.6586 159.317C39.0725 159.317 4.5 124.745 4.5 82.1586C4.5 76.1999 5.17796 70.3909 6.46331 64.808Z" fill="url(#paint0_linear_1299_4017)"/>
<defs>
<linearGradient id="paint0_linear_1299_4017" x1="81.6586" y1="5" x2="81.6586" y2="159.317" gradientUnits="userSpaceOnUse">
<stop stop-color="#00A4F6"/>
<stop offset="1" stop-color="#00EA98"/>
</linearGradient>
</defs>
</svg>
