<svg width="20" height="20" viewBox="0 0 20 20" fill="none" xmlns="http://www.w3.org/2000/svg">
<path fill-rule="evenodd" clip-rule="evenodd" d="M7.27145 5.59375C8.19738 6.09102 8.82703 7.06852 8.82703 8.19312C8.82703 9.31773 8.19738 10.2952 7.27145 10.7925V14.9686H4.48527V10.7925C3.55937 10.2952 2.92969 9.31773 2.92969 8.19312C2.92969 7.06852 3.55934 6.09105 4.48527 5.59379V7.5198L5.87836 8.49496L7.27145 7.5198V5.59375Z" stroke="white" stroke-miterlimit="22.9256" stroke-linecap="round" stroke-linejoin="round"/>
<path fill-rule="evenodd" clip-rule="evenodd" d="M2.01641 3.25H17.9836C18.7704 3.25 19.4141 3.89371 19.4141 4.68043V16.747L16.3281 14.9679H2.01641C1.22969 14.9679 0.585938 14.3241 0.585938 13.5374V4.68043C0.585938 3.89367 1.22965 3.25 2.01641 3.25Z" stroke="white" stroke-miterlimit="22.9256" stroke-linecap="round" stroke-linejoin="round"/>
<path d="M11.1719 5.59375H17.0704" stroke="white" stroke-miterlimit="22.9256" stroke-linecap="round" stroke-linejoin="round"/>
<path d="M11.1719 7.9375H17.0704" stroke="white" stroke-miterlimit="22.9256" stroke-linecap="round" stroke-linejoin="round"/>
<path d="M11.1719 10.2812H17.0704" stroke="white" stroke-miterlimit="22.9256" stroke-linecap="round" stroke-linejoin="round"/>
<path d="M11.1719 12.625H14.6875" stroke="white" stroke-miterlimit="22.9256" stroke-linecap="round" stroke-linejoin="round"/>
</svg>
